<?xml version="1.0"?>
<svg viewBox="0 0 64 64" xmlns="http://www.w3.org/2000/svg"><rect width="64" height="64" rx="8" fill="#E8DCC4"/><rect x="8" y="10" width="48" height="48" rx="2" fill="#2C8B8B"/><rect x="8" y="10" width="6" height="48" fill="#0B3B5C"/><circle cx="33" cy="30" r="15" fill="none" stroke="#0B3B5C" stroke-width="1" stroke-dasharray="1.5 1.5"/><circle cx="33" cy="30" r="13" fill="#F5F1E8"/><g transform="translate(25, 30) scale(1)"><path d="M0 0 C0 -3, 4 -5.5, 9 -5.5 C13.5 -5.5, 16 -3.5, 16 0 C16 3.5, 13.5 5.5, 9 5.5 C4 5.5, 0 3, 0 0 Z&#10;               M16 0 L21 -4 L21 4 Z" fill="#0B3B5C"/><circle cx="4" cy="-1" r="0.9" fill="#F5F1E8"/></g><path d="M16 50 Q 22 47, 28 50 T 40 50 T 52 50" stroke="#F5F1E8" stroke-width="1" fill="none" opacity="0.6"/></svg>